# This file uses centimeters as units for non-parametric coordinates.

mtllib Turret_SingleTarget_Bullet.mtl
g default
v -0.271244 0.064929 1.128691
v 0.271244 0.064929 1.128691
v -0.271244 0.163305 1.128691
v 0.271244 0.163305 1.128691
v -0.271244 0.163305 1.049124
v 0.271244 0.163305 1.049124
v -0.271244 0.064929 1.049124
v 0.271244 0.064929 1.049124
v -0.229041 -0.163305 1.130442
v 0.229041 -0.163305 1.130442
v -0.229041 -0.080235 1.130442
v 0.229041 -0.080235 1.130442
v -0.229041 -0.080235 1.047372
v 0.229041 -0.080235 1.047372
v -0.229041 -0.163305 1.047372
v 0.229041 -0.163305 1.047372
v -0.271244 0.064929 -1.049124
v 0.271244 0.064929 -1.049124
v -0.271244 0.163305 -1.049124
v 0.271244 0.163305 -1.049124
v -0.271244 0.163305 -1.128691
v 0.271244 0.163305 -1.128691
v -0.271244 0.064929 -1.128691
v 0.271244 0.064929 -1.128691
v -0.229041 -0.163305 -1.047372
v 0.229041 -0.163305 -1.047372
v -0.229041 -0.080235 -1.047372
v 0.229041 -0.080235 -1.047372
v -0.229041 -0.080235 -1.130442
v 0.229041 -0.080235 -1.130442
v -0.229041 -0.163305 -1.130442
v 0.229041 -0.163305 -1.130442
vt 0.182842 0.219874
vt 0.668881 0.221611
vt 0.757020 0.221926
vt 0.818248 0.479638
vt 0.757275 0.150638
vt 0.183412 0.060447
vt 0.669136 0.150323
vt 0.183097 0.148586
vt 0.190226 0.911475
vt 0.190385 0.450582
vt 0.190414 0.367002
vt 0.984916 0.508697
vt 0.106835 0.366973
vt 0.023067 0.911417
vt 0.106806 0.450553
vt 0.106646 0.911446
vt 0.374034 0.438988
vt 0.374811 0.907768
vt 0.374952 0.992777
vt 0.893144 0.511230
vt 0.443708 0.992663
vt 0.527800 0.438733
vt 0.443567 0.907653
vt 0.442791 0.438874
vt 0.706537 0.905044
vt 0.710224 0.449416
vt 0.710892 0.366791
vt 0.909573 0.477422
vt 0.628268 0.366123
vt 0.541288 0.903707
vt 0.627599 0.448747
vt 0.623913 0.904376
vt 0.979484 0.024255
vt 0.544974 0.448079
vt 0.792848 0.450084
vt 0.906321 0.024916
vt 0.789162 0.905713
vt 0.982736 0.476761
vt 0.828209 0.964532
vt 0.528576 0.907513
vt 0.826690 0.511452
vt 0.442650 0.353865
vt 0.289801 0.907908
vt 0.894662 0.964309
vt 0.289025 0.439129
vt 0.373894 0.353979
vt 0.913361 0.967060
vt 0.023226 0.450524
vt 0.915261 0.508368
vt 0.106617 0.995025
vt 0.273965 0.450611
vt 0.983016 0.967389
vt 0.273805 0.911504
vt 0.190197 0.995054
vt 0.882662 0.026691
vt 0.669451 0.062184
vt 0.884640 0.479348
vt 0.094958 0.148271
vt 0.668566 0.309750
vt 0.816271 0.026982
vt 0.182527 0.308013
vt 0.094703 0.219559
vt 0.623244 0.987000
vt 0.705869 0.987669
vn 0.000000 0.000000 1.000000
vn 0.000000 0.000000 1.000000
vn 0.000000 0.000000 1.000000
vn 0.000000 0.000000 1.000000
vn 0.000000 1.000000 0.000000
vn 0.000000 1.000000 0.000000
vn 0.000000 1.000000 0.000000
vn 0.000000 1.000000 0.000000
vn 0.000000 0.000000 -1.000000
vn 0.000000 0.000000 -1.000000
vn 0.000000 0.000000 -1.000000
vn 0.000000 0.000000 -1.000000
vn 0.000000 -1.000000 0.000000
vn 0.000000 -1.000000 0.000000
vn 0.000000 -1.000000 0.000000
vn 0.000000 -1.000000 0.000000
vn 1.000000 0.000000 0.000000
vn 1.000000 0.000000 0.000000
vn 1.000000 0.000000 0.000000
vn 1.000000 0.000000 0.000000
vn -1.000000 0.000000 0.000000
vn -1.000000 0.000000 0.000000
vn -1.000000 0.000000 0.000000
vn -1.000000 0.000000 0.000000
vn 0.000000 0.000000 1.000000
vn 0.000000 0.000000 1.000000
vn 0.000000 0.000000 1.000000
vn 0.000000 0.000000 1.000000
vn 0.000000 1.000000 0.000000
vn 0.000000 1.000000 0.000000
vn 0.000000 1.000000 0.000000
vn 0.000000 1.000000 0.000000
vn 0.000000 0.000000 -1.000000
vn 0.000000 0.000000 -1.000000
vn 0.000000 0.000000 -1.000000
vn 0.000000 0.000000 -1.000000
vn 0.000000 -1.000000 0.000000
vn 0.000000 -1.000000 0.000000
vn 0.000000 -1.000000 0.000000
vn 0.000000 -1.000000 0.000000
vn 1.000000 0.000000 0.000000
vn 1.000000 0.000000 0.000000
vn 1.000000 0.000000 0.000000
vn 1.000000 0.000000 0.000000
vn -1.000000 0.000000 0.000000
vn -1.000000 0.000000 0.000000
vn -1.000000 0.000000 0.000000
vn -1.000000 0.000000 0.000000
vn 0.000000 0.000000 1.000000
vn 0.000000 0.000000 1.000000
vn 0.000000 0.000000 1.000000
vn 0.000000 0.000000 1.000000
vn 0.000000 1.000000 0.000000
vn 0.000000 1.000000 0.000000
vn 0.000000 1.000000 0.000000
vn 0.000000 1.000000 0.000000
vn 0.000000 0.000000 -1.000000
vn 0.000000 0.000000 -1.000000
vn 0.000000 0.000000 -1.000000
vn 0.000000 0.000000 -1.000000
vn 0.000000 -1.000000 0.000000
vn 0.000000 -1.000000 0.000000
vn 0.000000 -1.000000 0.000000
vn 0.000000 -1.000000 0.000000
vn 1.000000 0.000000 0.000000
vn 1.000000 0.000000 0.000000
vn 1.000000 0.000000 0.000000
vn 1.000000 0.000000 0.000000
vn -1.000000 0.000000 0.000000
vn -1.000000 0.000000 0.000000
vn -1.000000 0.000000 0.000000
vn -1.000000 0.000000 0.000000
vn 0.000000 0.000000 1.000000
vn 0.000000 0.000000 1.000000
vn 0.000000 0.000000 1.000000
vn 0.000000 0.000000 1.000000
vn 0.000000 1.000000 0.000000
vn 0.000000 1.000000 0.000000
vn 0.000000 1.000000 0.000000
vn 0.000000 1.000000 0.000000
vn 0.000000 0.000000 -1.000000
vn 0.000000 0.000000 -1.000000
vn 0.000000 0.000000 -1.000000
vn 0.000000 0.000000 -1.000000
vn 0.000000 -1.000000 0.000000
vn 0.000000 -1.000000 0.000000
vn 0.000000 -1.000000 0.000000
vn 0.000000 -1.000000 0.000000
vn 1.000000 0.000000 0.000000
vn 1.000000 0.000000 0.000000
vn 1.000000 0.000000 0.000000
vn 1.000000 0.000000 0.000000
vn -1.000000 0.000000 0.000000
vn -1.000000 0.000000 0.000000
vn -1.000000 0.000000 0.000000
vn -1.000000 0.000000 0.000000
s off
g pCube7
usemtl initialShadingGroup
f 1/1/1 2/2/2 4/59/3 3/61/4
f 3/4/5 4/60/6 6/55/7 5/57/8
f 5/6/9 6/56/10 8/7/11 7/8/12
f 7/8/13 8/7/14 2/2/15 1/1/16
f 2/2/17 8/7/18 6/5/19 4/3/20
f 7/8/21 1/1/22 3/62/23 5/58/24
f 9/9/25 10/10/26 12/51/27 11/53/28
f 11/12/29 12/52/30 14/47/31 13/49/32
f 13/14/33 14/48/34 16/15/35 15/16/36
f 15/16/37 16/15/38 10/10/39 9/9/40
f 10/10/41 16/15/42 14/13/43 12/11/44
f 15/16/45 9/9/46 11/54/47 13/50/48
f 17/17/49 18/18/50 20/43/51 19/45/52
f 19/20/53 20/44/54 22/39/55 21/41/56
f 21/22/57 22/40/58 24/23/59 23/24/60
f 23/24/61 24/23/62 18/18/63 17/17/64
f 18/18/65 24/23/66 22/21/67 20/19/68
f 23/24/69 17/17/70 19/46/71 21/42/72
f 25/25/73 26/26/74 28/35/75 27/37/76
f 27/28/77 28/36/78 30/33/79 29/38/80
f 29/30/81 30/34/82 32/31/83 31/32/84
f 31/32/85 32/31/86 26/26/87 25/25/88
f 26/26/89 32/31/90 30/29/91 28/27/92
f 31/32/93 25/25/94 27/64/95 29/63/96
