# This file uses centimeters as units for non-parametric coordinates.

mtllib Core.mtl
g default
v 1.123284 1.865621 -0.068563
v 1.150122 1.943776 -0.020884
v 1.125664 1.864851 0.026809
v 0.532566 2.637956 -0.906605
v 0.616326 2.639578 -0.860963
v 0.589489 2.561423 -0.908643
v 0.634709 2.546788 0.903584
v 0.659167 2.625714 0.855893
v 0.577785 2.623321 0.905622
v 0.043990 3.319123 0.065542
v 0.125372 3.321516 0.015813
v 0.041610 3.319893 -0.029828
v -0.339375 1.821783 0.922036
v -0.396299 1.898316 0.924074
v -0.423137 1.820161 0.876394
v -0.956931 2.515963 0.036314
v -0.930093 2.594118 0.083994
v -0.932473 2.594888 -0.011377
v 0.151580 1.139845 0.045259
v 0.067819 1.138223 -0.000381
v 0.149200 1.140615 -0.050111
v -0.384594 1.836417 -0.890192
v -0.465976 1.834025 -0.840463
v -0.441518 1.912950 -0.888153
v 1.560562 2.196054 0.014978
v 1.130695 2.196054 -1.022811
v 0.092905 2.196054 -1.452678
v -0.944884 2.196054 -1.022811
v -1.374752 2.196054 0.014978
v -0.944884 2.196054 1.052769
v 0.092905 2.196054 1.482635
v 1.130695 2.196054 1.052769
v 1.560562 2.288073 0.014978
v 1.130695 2.288073 -1.022811
v 0.092905 2.288073 -1.452678
v -0.944884 2.288073 -1.022811
v -1.374752 2.288073 0.014978
v -0.944884 2.288073 1.052769
v 0.092905 2.288073 1.482635
v 1.130695 2.288073 1.052769
v 1.723635 2.288073 0.014978
v 1.246005 2.288073 -1.138122
v 0.092905 2.288073 -1.615751
v -1.060195 2.288073 -1.138122
v -1.537824 2.288073 0.014978
v -1.060195 2.288073 1.168079
v 0.092905 2.288073 1.645708
v 1.246005 2.288073 1.168079
v 1.723635 2.196054 0.014978
v 1.246005 2.196054 -1.138122
v 0.092905 2.196054 -1.615751
v -1.060195 2.196054 -1.138122
v -1.537824 2.196054 0.014978
v -1.060195 2.196054 1.168079
v 0.092905 2.196054 1.645708
v 1.246005 2.196054 1.168079
v 0.391562 0.327837 -1.060931
v -0.864951 0.327837 -0.652665
v -0.864951 0.327837 0.668510
v 0.391562 0.327837 1.076776
v 1.168129 0.327837 0.007922
v 0.345020 0.347856 -0.853631
v -0.667797 0.347856 -0.524547
v -0.667797 0.347856 0.540391
v 0.345020 0.347856 0.869475
v 0.970976 0.347856 0.007922
v 0.288129 0.519310 -0.600233
v -0.426801 0.519310 -0.367938
v -0.426801 0.519310 0.383783
v 0.288129 0.519310 0.616077
v 0.729980 0.519310 0.007922
v 0.274621 0.432935 -0.540071
v -0.369584 0.432935 -0.330756
v 0.096568 0.432935 0.007922
v -0.369584 0.432935 0.346601
v 0.274621 0.432935 0.555915
v 0.672762 0.432935 0.007922
vt 0.758374 0.963990
vt 0.740022 0.967098
vt 0.726160 0.749939
vt 0.741809 0.742336
vt 0.737049 0.065236
vt 0.754215 0.064486
vt 0.747458 0.285227
vt 0.731128 0.277529
vt 0.739380 0.048628
vt 0.514677 0.059439
vt 0.512717 0.042546
vt 0.730863 0.291692
vt 0.746665 0.513989
vt 0.730306 0.507090
vt 0.517018 0.292238
vt 0.517238 0.278318
vt 0.498922 0.957717
vt 0.480344 0.954977
vt 0.503067 0.742782
vt 0.518526 0.751375
vt 0.497908 0.058287
vt 0.500707 0.285757
vt 0.516444 0.507430
vt 0.499855 0.514333
vt 0.518918 0.736894
vt 0.726245 0.736117
vt 0.516301 0.521352
vt 0.729992 0.520965
vt 0.261940 0.918555
vt 0.294124 0.705375
vt 0.952124 0.714716
vt 0.977589 0.931778
vt 0.081842 0.613908
vt 0.082831 0.732571
vt 0.048017 0.732627
vt 0.047064 0.613917
vt 0.081708 0.495225
vt 0.046931 0.495226
vt 0.081575 0.376535
vt 0.046797 0.376544
vt 0.080622 0.257825
vt 0.045808 0.257881
vt 0.081081 0.145865
vt 0.047421 0.143481
vt 0.074850 0.026589
vt 0.041004 0.028207
vt 0.079969 0.847062
vt 0.079015 0.962350
vt 0.045071 0.963798
vt 0.046468 0.844510
vt 0.200351 0.265416
vt 0.292194 0.315944
vt 0.290520 0.331070
vt 0.188472 0.274927
vt 0.171138 0.164745
vt 0.156012 0.163070
vt 0.221666 0.072902
vt 0.212155 0.061022
vt 0.322337 0.043688
vt 0.324012 0.028562
vt 0.414180 0.094216
vt 0.426060 0.084705
vt 0.443394 0.194887
vt 0.458520 0.196562
vt 0.392866 0.286730
vt 0.402377 0.298610
vt 0.159531 0.860062
vt 0.157146 0.979221
vt 0.125772 0.978732
vt 0.128389 0.860748
vt 0.161964 0.742139
vt 0.130660 0.742172
vt 0.158863 0.623394
vt 0.127558 0.623476
vt 0.154440 0.504670
vt 0.123134 0.504764
vt 0.150016 0.385958
vt 0.118710 0.386041
vt 0.146913 0.267262
vt 0.115609 0.267295
vt 0.145488 0.148661
vt 0.114362 0.149399
vt 0.145585 0.030674
vt 0.114201 0.030238
vt 0.182066 0.435509
vt 0.269958 0.352253
vt 0.275613 0.367026
vt 0.196510 0.441956
vt 0.178788 0.556529
vt 0.193560 0.550874
vt 0.262043 0.644421
vt 0.268490 0.629977
vt 0.383063 0.647700
vt 0.377408 0.632927
vt 0.470955 0.564444
vt 0.456511 0.557997
vt 0.474234 0.443424
vt 0.459462 0.449079
vt 0.390978 0.355532
vt 0.384531 0.369976
vt 0.765268 0.526317
vt 0.858846 0.426652
vt 0.862016 0.449788
vt 0.785901 0.530937
vt 0.982648 0.484903
vt 0.962803 0.497207
vt 0.965397 0.620678
vt 0.948697 0.607716
vt 0.830992 0.646173
vt 0.839364 0.628410
vt 0.826257 0.537762
vt 0.869381 0.492701
vt 0.878802 0.544830
vt 0.925596 0.520017
vt 0.916842 0.581744
vt 0.855623 0.592576
vt 0.867433 0.482184
vt 0.816058 0.536284
vt 0.934813 0.514549
vt 0.924690 0.588474
vt 0.851450 0.601758
vn 0.596671 -0.802201 -0.021366
vn 0.596672 -0.802201 -0.021366
vn 0.596671 -0.802201 -0.021366
vn 0.596671 -0.802201 -0.021366
vn 0.853033 0.025078 -0.521255
vn 0.853033 0.025078 -0.521255
vn 0.853033 0.025078 -0.521255
vn 0.853033 0.025078 -0.521255
vn 0.877979 0.017010 0.478398
vn 0.877979 0.017010 0.478398
vn 0.877979 0.017010 0.478398
vn 0.877979 0.017010 0.478397
vn -0.024947 0.008073 -0.999656
vn -0.024947 0.008073 -0.999656
vn -0.024947 0.008073 -0.999656
vn -0.024947 0.008073 -0.999656
vn 0.256363 0.827278 -0.499889
vn 0.256363 0.827278 -0.499889
vn 0.256363 0.827278 -0.499889
vn 0.256363 0.827278 -0.499889
vn 0.024941 -0.008069 0.999656
vn 0.024941 -0.008069 0.999656
vn 0.024941 -0.008069 0.999656
vn 0.024941 -0.008069 0.999656
vn 0.281306 0.819206 0.499769
vn 0.281306 0.819206 0.499769
vn 0.281306 0.819206 0.499769
vn 0.281306 0.819206 0.499769
vn -0.596671 0.802202 0.021371
vn -0.596671 0.802202 0.021371
vn -0.596671 0.802202 0.021371
vn -0.596671 0.802202 0.021371
vn -0.256364 -0.827278 0.499888
vn -0.256364 -0.827279 0.499888
vn -0.256364 -0.827278 0.499888
vn -0.256364 -0.827279 0.499888
vn -0.853033 -0.025079 0.521255
vn -0.853033 -0.025079 0.521255
vn -0.853033 -0.025079 0.521255
vn -0.853033 -0.025079 0.521255
vn -0.877977 -0.017006 -0.478401
vn -0.877977 -0.017006 -0.478401
vn -0.877977 -0.017006 -0.478401
vn -0.877977 -0.017006 -0.478401
vn -0.281309 -0.819206 -0.499766
vn -0.281309 -0.819206 -0.499766
vn -0.281309 -0.819206 -0.499766
vn -0.281309 -0.819206 -0.499766
vn 0.802099 0.596998 -0.015194
vn 0.802099 0.596998 -0.015194
vn 0.802099 0.596998 -0.015194
vn 0.802099 0.596998 -0.015194
vn -0.404271 0.561535 0.721972
vn -0.404271 0.561535 0.721972
vn -0.404271 0.561535 0.721972
vn -0.404271 0.561535 0.721972
vn -0.802099 -0.596998 0.015193
vn -0.802099 -0.596998 0.015193
vn -0.802099 -0.596998 0.015193
vn -0.802099 -0.596998 0.015193
vn 0.404272 -0.561534 -0.721972
vn 0.404272 -0.561534 -0.721972
vn 0.404272 -0.561534 -0.721972
vn 0.404272 -0.561534 -0.721972
vn -0.439548 0.572950 -0.691756
vn -0.439548 0.572950 -0.691756
vn -0.439548 0.572950 -0.691756
vn -0.439548 0.572950 -0.691755
vn 0.439547 -0.572951 0.691755
vn 0.439547 -0.572951 0.691755
vn 0.439547 -0.572951 0.691755
vn 0.439547 -0.572951 0.691755
vn 0.950272 -0.310316 -0.026220
vn 0.950272 -0.310315 -0.026220
vn 0.950272 -0.310315 -0.026220
vn 0.442730 0.351267 -0.824986
vn 0.442730 0.351267 -0.824986
vn 0.442730 0.351267 -0.824986
vn 0.483459 0.338090 0.807442
vn 0.483459 0.338090 0.807442
vn 0.483459 0.338090 0.807442
vn -0.024095 0.999672 0.008678
vn -0.024095 0.999672 0.008678
vn -0.024095 0.999672 0.008678
vn -0.442726 -0.351271 0.824986
vn -0.442726 -0.351271 0.824986
vn -0.442726 -0.351271 0.824986
vn -0.950270 0.310321 0.026222
vn -0.950270 0.310321 0.026222
vn -0.950270 0.310322 0.026222
vn 0.024085 -0.999672 -0.008675
vn 0.024085 -0.999672 -0.008675
vn 0.024085 -0.999672 -0.008675
vn -0.483465 -0.338081 -0.807442
vn -0.483465 -0.338081 -0.807442
vn -0.483465 -0.338081 -0.807442
vn -0.923879 0.000000 0.382684
vn -0.923879 0.000000 0.382684
vn -0.923879 0.000000 0.382684
vn -0.923879 0.000000 0.382684
vn -0.382684 0.000000 0.923879
vn -0.382684 0.000000 0.923879
vn -0.382684 0.000000 0.923879
vn -0.382684 0.000000 0.923879
vn 0.382684 0.000000 0.923879
vn 0.382684 0.000000 0.923879
vn 0.382684 0.000000 0.923879
vn 0.382684 0.000000 0.923879
vn 0.923879 0.000000 0.382684
vn 0.923879 0.000000 0.382684
vn 0.923879 0.000000 0.382684
vn 0.923879 0.000000 0.382684
vn 0.923880 0.000000 -0.382683
vn 0.923880 0.000000 -0.382683
vn 0.923880 0.000000 -0.382683
vn 0.923880 0.000000 -0.382683
vn 0.382684 0.000000 -0.923879
vn 0.382684 0.000000 -0.923879
vn 0.382684 0.000000 -0.923879
vn 0.382684 0.000000 -0.923879
vn -0.382684 0.000000 -0.923879
vn -0.382684 0.000000 -0.923879
vn -0.382684 0.000000 -0.923879
vn -0.382684 0.000000 -0.923879
vn -0.923880 0.000000 -0.382683
vn -0.923880 0.000000 -0.382683
vn -0.923880 0.000000 -0.382683
vn -0.923880 0.000000 -0.382683
vn 0.000000 1.000000 0.000000
vn 0.000000 1.000000 0.000000
vn 0.000000 1.000000 0.000000
vn 0.000000 1.000000 0.000000
vn 0.000000 1.000000 0.000000
vn 0.000000 1.000000 0.000000
vn 0.000000 1.000000 0.000000
vn 0.000000 1.000000 0.000000
vn 0.000000 1.000000 0.000000
vn 0.000000 1.000000 0.000000
vn 0.000000 1.000000 0.000000
vn 0.000000 1.000000 0.000000
vn 0.000000 1.000000 0.000000
vn 0.000000 1.000000 0.000000
vn 0.000000 1.000000 0.000000
vn 0.000000 1.000000 0.000000
vn 0.000000 1.000000 0.000000
vn 0.000000 1.000000 0.000000
vn 0.000000 1.000000 0.000000
vn 0.000000 1.000000 0.000000
vn 0.000000 1.000000 0.000000
vn 0.000000 1.000000 0.000000
vn 0.000000 1.000000 0.000000
vn 0.000000 1.000000 0.000000
vn 0.000000 1.000000 0.000000
vn 0.000000 1.000000 0.000000
vn 0.000000 1.000000 0.000000
vn 0.000000 1.000000 0.000000
vn 0.000000 1.000000 0.000000
vn 0.000000 1.000000 0.000000
vn 0.000000 1.000000 0.000000
vn 0.000000 1.000000 0.000000
vn 0.923880 0.000000 -0.382683
vn 0.923880 0.000000 -0.382683
vn 0.923880 0.000000 -0.382683
vn 0.923880 0.000000 -0.382683
vn 0.382683 0.000000 -0.923880
vn 0.382683 0.000000 -0.923880
vn 0.382683 0.000000 -0.923880
vn 0.382683 0.000000 -0.923880
vn -0.382683 0.000000 -0.923880
vn -0.382683 0.000000 -0.923880
vn -0.382683 0.000000 -0.923880
vn -0.382683 0.000000 -0.923880
vn -0.923880 0.000000 -0.382683
vn -0.923880 0.000000 -0.382683
vn -0.923880 0.000000 -0.382683
vn -0.923880 0.000000 -0.382683
vn -0.923880 0.000000 0.382683
vn -0.923880 0.000000 0.382683
vn -0.923880 0.000000 0.382683
vn -0.923880 0.000000 0.382683
vn -0.382683 0.000000 0.923880
vn -0.382683 0.000000 0.923880
vn -0.382683 0.000000 0.923880
vn -0.382683 0.000000 0.923880
vn 0.382683 0.000000 0.923880
vn 0.382683 0.000000 0.923880
vn 0.382683 0.000000 0.923880
vn 0.382683 0.000000 0.923880
vn 0.923880 0.000000 0.382683
vn 0.923880 0.000000 0.382683
vn 0.923880 0.000000 0.382683
vn 0.923880 0.000000 0.382683
vn 0.000000 -1.000000 0.000001
vn 0.000000 -1.000000 0.000000
vn 0.000000 -1.000000 0.000000
vn 0.000000 -1.000000 0.000001
vn 0.000000 -1.000000 0.000001
vn 0.000000 -1.000000 0.000001
vn 0.000000 -1.000000 0.000001
vn 0.000000 -1.000000 0.000001
vn 0.000000 -1.000000 0.000000
vn 0.000000 -1.000000 0.000001
vn 0.000000 -1.000000 0.000001
vn 0.000000 -1.000000 0.000000
vn 0.000000 -1.000000 0.000000
vn 0.000000 -1.000000 0.000000
vn 0.000000 -1.000000 0.000000
vn 0.000000 -1.000000 0.000000
vn 0.000000 -1.000000 -0.000001
vn 0.000000 -1.000000 0.000000
vn 0.000000 -1.000000 0.000000
vn 0.000000 -1.000000 -0.000001
vn 0.000000 -1.000000 -0.000001
vn 0.000000 -1.000000 -0.000001
vn 0.000000 -1.000000 -0.000001
vn 0.000000 -1.000000 -0.000001
vn 0.000000 -1.000000 -0.000001
vn 0.000000 -1.000000 -0.000001
vn 0.000000 -1.000000 -0.000001
vn 0.000000 -1.000000 -0.000001
vn 0.000000 -1.000000 0.000000
vn 0.000000 -1.000000 -0.000001
vn 0.000000 -1.000000 -0.000001
vn 0.000000 -1.000000 0.000000
vn -0.033644 0.994055 -0.103547
vn -0.033644 0.994055 -0.103547
vn -0.033644 0.994055 -0.103547
vn -0.033644 0.994055 -0.103547
vn -0.101017 0.994885 0.000000
vn -0.101017 0.994885 0.000000
vn -0.101017 0.994885 0.000000
vn -0.101017 0.994885 0.000000
vn -0.033644 0.994055 0.103547
vn -0.033644 0.994055 0.103547
vn -0.033644 0.994055 0.103547
vn -0.033644 0.994055 0.103547
vn 0.100747 0.992216 0.073197
vn 0.100747 0.992216 0.073197
vn 0.100747 0.992216 0.073197
vn 0.100747 0.992216 0.073197
vn 0.100747 0.992216 -0.073197
vn 0.100747 0.992216 -0.073197
vn 0.100747 0.992216 -0.073197
vn 0.100747 0.992216 -0.073197
vn 0.000000 1.000000 0.000000
vn 0.000000 1.000000 0.000000
vn 0.000000 1.000000 0.000000
vn 0.000000 1.000000 0.000000
vn 0.000000 1.000000 0.000000
vn 0.000000 1.000000 0.000000
vn 0.000000 1.000000 0.000000
vn 0.000000 1.000000 0.000000
vn 0.000000 1.000000 0.000000
vn 0.000000 1.000000 0.000000
vn 0.000000 1.000000 0.000000
vn 0.000000 1.000000 0.000000
vn 0.000000 1.000000 0.000000
vn 0.000000 1.000000 0.000000
vn 0.000000 1.000000 0.000000
vn -0.188133 0.793316 -0.579013
vn -0.188133 0.793316 -0.579013
vn -0.188133 0.793316 -0.579013
vn -0.188133 0.793316 -0.579013
vn -0.579703 0.814828 0.000000
vn -0.579703 0.814828 0.000000
vn -0.579703 0.814828 0.000000
vn -0.579703 0.814828 0.000000
vn -0.188133 0.793316 0.579013
vn -0.188133 0.793316 0.579013
vn -0.188133 0.793316 0.579013
vn -0.188133 0.793316 0.579013
vn 0.534250 0.750941 0.388155
vn 0.534250 0.750941 0.388155
vn 0.534250 0.750941 0.388155
vn 0.534250 0.750941 0.388155
vn 0.534250 0.750941 -0.388155
vn 0.534250 0.750941 -0.388155
vn 0.534250 0.750941 -0.388155
vn 0.534250 0.750941 -0.388155
vn 0.263327 0.523311 0.810435
vn 0.263327 0.523311 0.810435
vn 0.263327 0.523311 0.810435
vn 0.263327 0.523311 0.810435
vn 0.833674 0.552257 0.000000
vn 0.833674 0.552257 0.000000
vn 0.833674 0.552257 0.000000
vn 0.833674 0.552257 0.000000
vn 0.263326 0.523310 -0.810436
vn 0.263326 0.523310 -0.810436
vn 0.263326 0.523310 -0.810436
vn 0.263326 0.523310 -0.810436
vn -0.713071 0.472362 -0.518077
vn -0.713071 0.472362 -0.518077
vn -0.713071 0.472362 -0.518077
vn -0.713071 0.472362 -0.518077
vn -0.713071 0.472363 0.518076
vn -0.713071 0.472363 0.518076
vn -0.713071 0.472363 0.518076
vn -0.713071 0.472363 0.518076
s off
g Core1
usemtl initialShadingGroup
f 1/1/1 3/2/2 19/3/3 21/4/4
f 2/5/5 1/6/6 6/7/7 5/8/8
f 3/9/9 2/5/10 8/10/11 7/11/12
f 4/12/13 6/7/14 22/13/15 24/14/16
f 5/8/17 4/12/18 12/15/19 11/16/20
f 7/17/21 9/18/22 14/19/23 13/20/24
f 9/21/25 8/10/26 11/16/27 10/22/28
f 10/22/29 12/15/30 18/23/31 17/24/32
f 13/20/33 15/25/34 20/26/35 19/3/36
f 15/25/37 14/19/38 17/24/39 16/27/40
f 16/27/41 18/23/42 24/14/43 23/28/44
f 21/4/45 20/26/46 23/28/47 22/13/48
f 2/5/49 5/8/50 11/16/51 8/10/52
f 9/18/53 10/29/54 17/30/55 14/19/56
f 15/25/57 16/27/58 23/28/59 20/26/60
f 21/4/61 22/31/62 6/32/63 1/1/64
f 4/12/65 24/14/66 18/23/67 12/15/68
f 19/3/69 3/2/70 7/17/71 13/20/72
f 1/6/73 2/5/74 3/9/75
f 4/12/76 5/8/77 6/7/78
f 7/11/79 8/10/80 9/21/81
f 10/22/82 11/16/83 12/15/84
f 13/20/85 14/19/86 15/25/87
f 16/27/88 17/24/89 18/23/90
f 19/3/91 20/26/92 21/4/93
f 22/13/94 23/28/95 24/14/96
f 26/33/97 25/34/98 33/35/99 34/36/100
f 27/37/101 26/33/102 34/36/103 35/38/104
f 28/39/105 27/37/106 35/38/107 36/40/108
f 29/41/109 28/39/110 36/40/111 37/42/112
f 30/43/113 29/41/114 37/42/115 38/44/116
f 31/45/117 30/43/118 38/44/119 39/46/120
f 32/47/121 31/48/122 39/49/123 40/50/124
f 25/34/125 32/47/126 40/50/127 33/35/128
f 34/51/129 33/52/130 41/53/131 42/54/132
f 35/55/133 34/51/134 42/54/135 43/56/136
f 36/57/137 35/55/138 43/56/139 44/58/140
f 37/59/141 36/57/142 44/58/143 45/60/144
f 38/61/145 37/59/146 45/60/147 46/62/148
f 39/63/149 38/61/150 46/62/151 47/64/152
f 40/65/153 39/63/154 47/64/155 48/66/156
f 33/52/157 40/65/158 48/66/159 41/53/160
f 42/67/161 41/68/162 49/69/163 50/70/164
f 43/71/165 42/67/166 50/70/167 51/72/168
f 44/73/169 43/71/170 51/72/171 52/74/172
f 45/75/173 44/73/174 52/74/175 53/76/176
f 46/77/177 45/75/178 53/76/179 54/78/180
f 47/79/181 46/77/182 54/78/183 55/80/184
f 48/81/185 47/79/186 55/80/187 56/82/188
f 41/83/189 48/81/190 56/82/191 49/84/192
f 50/85/193 49/86/194 25/87/195 26/88/196
f 51/89/197 50/85/198 26/88/199 27/90/200
f 52/91/201 51/89/202 27/90/203 28/92/204
f 53/93/205 52/91/206 28/92/207 29/94/208
f 54/95/209 53/93/210 29/94/211 30/96/212
f 55/97/213 54/95/214 30/96/215 31/98/216
f 56/99/217 55/97/218 31/98/219 32/100/220
f 49/86/221 56/99/222 32/100/223 25/87/224
f 57/101/225 58/102/226 63/103/227 62/104/228
f 58/102/229 59/105/230 64/106/231 63/103/232
f 59/105/233 60/107/234 65/108/235 64/106/236
f 60/107/237 61/109/238 66/110/239 65/108/240
f 61/109/241 57/101/242 62/104/243 66/110/244
f 72/111/245 73/112/246 74/113/247
f 73/112/248 75/114/249 74/113/250
f 75/114/251 76/115/252 74/113/253
f 76/115/254 77/116/255 74/113/256
f 77/116/257 72/111/258 74/113/259
f 62/104/260 63/103/261 68/117/262 67/118/263
f 63/103/264 64/106/265 69/119/266 68/117/267
f 64/106/268 65/108/269 70/120/270 69/119/271
f 65/108/272 66/110/273 71/121/274 70/120/275
f 66/110/276 62/104/277 67/118/278 71/121/279
f 67/118/280 68/117/281 73/112/282 72/111/283
f 68/117/284 69/119/285 75/114/286 73/112/287
f 69/119/288 70/120/289 76/115/290 75/114/291
f 70/120/292 71/121/293 77/116/294 76/115/295
f 71/121/296 67/118/297 72/111/298 77/116/299
