# This file uses centimeters as units for non-parametric coordinates.

mtllib Core.mtl
g default
v -2.225931 3.206496 -9.464378
v -2.170255 3.368635 -9.365464
v -2.220994 3.204899 -9.266524
v -3.451422 4.808764 -11.202961
v -3.277654 4.812129 -11.108274
v -3.333330 4.649990 -11.207190
v -3.239517 4.619630 -7.447586
v -3.188778 4.783366 -7.546525
v -3.357612 4.778403 -7.443358
v -4.465010 6.221896 -9.186169
v -4.296176 6.226861 -9.289336
v -4.469947 6.223495 -9.384022
v -5.260328 3.115551 -7.409307
v -5.378423 3.274324 -7.405078
v -5.434099 3.112187 -7.503993
v -6.541496 4.555680 -9.246804
v -6.485819 4.717818 -9.147889
v -6.490757 4.719416 -9.345743
v -4.241806 1.700819 -9.228247
v -4.415575 1.697454 -9.322932
v -4.246742 1.702417 -9.426100
v -5.354140 3.145911 -11.168912
v -5.522972 3.140947 -11.065744
v -5.472233 3.304683 -11.164682
v -1.318766 3.892006 -9.291066
v -2.210557 3.892006 -11.444040
v -4.363531 3.892006 -12.335832
v -6.516505 3.892006 -11.444040
v -7.408297 3.892006 -9.291066
v -6.516505 3.892006 -7.138092
v -4.363531 3.892006 -6.246301
v -2.210557 3.892006 -7.138092
v -1.318766 4.082904 -9.291066
v -2.210557 4.082904 -11.444040
v -4.363531 4.082904 -12.335832
v -6.516505 4.082904 -11.444040
v -7.408297 4.082904 -9.291066
v -6.516505 4.082904 -7.138092
v -4.363531 4.082904 -6.246301
v -2.210557 4.082904 -7.138092
v -0.980458 4.082904 -9.291066
v -1.971337 4.082904 -11.683260
v -4.363531 4.082904 -12.674139
v -6.755725 4.082904 -11.683260
v -7.746603 4.082904 -9.291066
v -6.755725 4.082904 -6.898872
v -4.363531 4.082904 -5.907994
v -1.971338 4.082904 -6.898872
v -0.980458 3.892006 -9.291066
v -1.971337 3.892006 -11.683260
v -4.363531 3.892006 -12.674139
v -6.755725 3.892006 -11.683260
v -7.746603 3.892006 -9.291066
v -6.755725 3.892006 -6.898872
v -4.363531 3.892006 -5.907994
v -1.971338 3.892006 -6.898872
v -3.743944 0.016247 -11.523123
v -6.350676 0.016247 -10.676145
v -6.350676 0.016247 -7.935266
v -3.743944 0.016247 -7.088287
v -2.132898 0.016247 -9.305705
v -3.840499 0.057777 -11.093063
v -5.941665 0.057777 -10.410353
v -5.941665 0.057777 -8.201057
v -3.840499 0.057777 -7.518347
v -2.541907 0.057777 -9.305705
v -3.958525 0.413472 -10.567370
v -5.441702 0.413472 -10.085457
v -5.441702 0.413472 -8.525953
v -3.958525 0.413472 -8.044041
v -3.041872 0.413472 -9.305705
v -3.986547 0.234280 -10.442558
v -5.322999 0.234280 -10.008319
v -4.355933 0.234280 -9.305705
v -5.322999 0.234280 -8.603091
v -3.986547 0.234280 -8.168852
v -3.160574 0.234280 -9.305705
vt 0.758374 0.963990
vt 0.739380 0.048628
vt 0.726160 0.749939
vt 0.741809 0.742336
vt 0.737049 0.065236
vt 0.977589 0.931778
vt 0.731128 0.277529
vt 0.514677 0.059439
vt 0.498922 0.957717
vt 0.730863 0.291692
vt 0.952124 0.714716
vt 0.730306 0.507090
vt 0.517018 0.292238
vt 0.517238 0.278318
vt 0.497908 0.058287
vt 0.503067 0.742782
vt 0.518526 0.751375
vt 0.500707 0.285757
vt 0.516444 0.507430
vt 0.499855 0.514333
vt 0.518918 0.736894
vt 0.726245 0.736117
vt 0.516301 0.521352
vt 0.729992 0.520965
vt 0.196510 0.441956
vt 0.275613 0.367026
vt 0.292194 0.315944
vt 0.200351 0.265416
vt 0.193560 0.550874
vt 0.171138 0.164745
vt 0.268490 0.629977
vt 0.221666 0.072902
vt 0.377408 0.632927
vt 0.322337 0.043688
vt 0.456511 0.557997
vt 0.414180 0.094216
vt 0.459462 0.449079
vt 0.443394 0.194887
vt 0.384531 0.369976
vt 0.392866 0.286730
vt 0.145585 0.030674
vt 0.159531 0.860062
vt 0.161964 0.742139
vt 0.158863 0.623394
vt 0.154440 0.504670
vt 0.150016 0.385958
vt 0.146913 0.267262
vt 0.145488 0.148661
vt 0.269958 0.352253
vt 0.182066 0.435509
vt 0.178788 0.556529
vt 0.262043 0.644421
vt 0.383063 0.647700
vt 0.470955 0.564444
vt 0.474234 0.443424
vt 0.390978 0.355532
vt 0.765268 0.526317
vt 0.858846 0.426652
vt 0.862016 0.449788
vt 0.785901 0.530937
vt 0.982648 0.484903
vt 0.962803 0.497207
vt 0.965397 0.620678
vt 0.948697 0.607716
vt 0.830992 0.646173
vt 0.839364 0.628410
vt 0.826257 0.537762
vt 0.869381 0.492701
vt 0.878802 0.544830
vt 0.925596 0.520017
vt 0.916842 0.581744
vt 0.855623 0.592576
vt 0.867433 0.482184
vt 0.816058 0.536284
vt 0.934813 0.514549
vt 0.924690 0.588474
vt 0.851450 0.601758
vt 0.079015 0.962350
vt 0.074850 0.026589
vt 0.041004 0.028207
vt 0.045071 0.963798
vt 0.402377 0.298610
vt 0.290520 0.331070
vt 0.458520 0.196562
vt 0.212155 0.061022
vt 0.156012 0.163070
vt 0.188472 0.274927
vt 0.046468 0.844510
vt 0.048017 0.732627
vt 0.047421 0.143481
vt 0.045808 0.257881
vt 0.046797 0.376544
vt 0.046931 0.495226
vt 0.047064 0.613917
vt 0.079969 0.847062
vt 0.082831 0.732571
vt 0.081575 0.376535
vt 0.081708 0.495225
vt 0.081842 0.613908
vt 0.746665 0.513989
vt 0.294124 0.705375
vt 0.261940 0.918555
vt 0.480344 0.954977
vt 0.512717 0.042546
vt 0.747458 0.285227
vt 0.740022 0.967098
vt 0.754215 0.064486
vt 0.114362 0.149399
vt 0.114201 0.030238
vt 0.115609 0.267295
vt 0.118710 0.386041
vt 0.123134 0.504764
vt 0.127558 0.623476
vt 0.130660 0.742172
vt 0.128389 0.860748
vt 0.426060 0.084705
vt 0.324012 0.028562
vt 0.081081 0.145865
vt 0.080622 0.257825
vt 0.157146 0.979221
vt 0.125772 0.978732
vn 0.596671 -0.802201 -0.021366
vn 0.596672 -0.802201 -0.021366
vn 0.596671 -0.802201 -0.021366
vn 0.596671 -0.802201 -0.021366
vn 0.853033 0.025078 -0.521255
vn 0.853033 0.025078 -0.521255
vn 0.853033 0.025078 -0.521255
vn 0.853033 0.025078 -0.521255
vn 0.877979 0.017010 0.478398
vn 0.877979 0.017010 0.478398
vn 0.877979 0.017010 0.478398
vn 0.877979 0.017010 0.478397
vn -0.024947 0.008073 -0.999656
vn -0.024947 0.008073 -0.999656
vn -0.024947 0.008073 -0.999656
vn -0.024947 0.008073 -0.999656
vn 0.256363 0.827278 -0.499889
vn 0.256363 0.827278 -0.499889
vn 0.256363 0.827278 -0.499889
vn 0.256363 0.827278 -0.499889
vn 0.024941 -0.008069 0.999656
vn 0.024941 -0.008069 0.999656
vn 0.024941 -0.008069 0.999656
vn 0.024941 -0.008069 0.999656
vn 0.281306 0.819206 0.499769
vn 0.281306 0.819206 0.499769
vn 0.281306 0.819206 0.499769
vn 0.281306 0.819206 0.499769
vn -0.596671 0.802202 0.021371
vn -0.596671 0.802202 0.021371
vn -0.596671 0.802202 0.021371
vn -0.596671 0.802202 0.021371
vn -0.256364 -0.827278 0.499888
vn -0.256364 -0.827279 0.499888
vn -0.256364 -0.827278 0.499888
vn -0.256364 -0.827279 0.499888
vn -0.853033 -0.025079 0.521255
vn -0.853033 -0.025079 0.521255
vn -0.853033 -0.025079 0.521255
vn -0.853033 -0.025079 0.521255
vn -0.877977 -0.017006 -0.478401
vn -0.877977 -0.017006 -0.478401
vn -0.877977 -0.017006 -0.478401
vn -0.877977 -0.017006 -0.478401
vn -0.281309 -0.819206 -0.499766
vn -0.281309 -0.819206 -0.499766
vn -0.281309 -0.819206 -0.499766
vn -0.281309 -0.819206 -0.499766
vn 0.802099 0.596998 -0.015194
vn 0.802099 0.596998 -0.015194
vn 0.802099 0.596998 -0.015194
vn 0.802099 0.596998 -0.015194
vn -0.404271 0.561535 0.721972
vn -0.404271 0.561535 0.721972
vn -0.404271 0.561535 0.721972
vn -0.404271 0.561535 0.721972
vn -0.802099 -0.596998 0.015193
vn -0.802099 -0.596998 0.015193
vn -0.802099 -0.596998 0.015193
vn -0.802099 -0.596998 0.015193
vn 0.404272 -0.561534 -0.721972
vn 0.404272 -0.561534 -0.721972
vn 0.404272 -0.561534 -0.721972
vn 0.404272 -0.561534 -0.721972
vn -0.439548 0.572950 -0.691756
vn -0.439548 0.572950 -0.691756
vn -0.439548 0.572950 -0.691756
vn -0.439548 0.572950 -0.691755
vn 0.439547 -0.572951 0.691755
vn 0.439547 -0.572951 0.691755
vn 0.439547 -0.572951 0.691755
vn 0.439547 -0.572951 0.691755
vn 0.950272 -0.310316 -0.026220
vn 0.950272 -0.310315 -0.026220
vn 0.950272 -0.310315 -0.026220
vn 0.442730 0.351267 -0.824986
vn 0.442730 0.351267 -0.824986
vn 0.442730 0.351267 -0.824986
vn 0.483459 0.338090 0.807442
vn 0.483459 0.338090 0.807442
vn 0.483459 0.338090 0.807442
vn -0.024095 0.999672 0.008678
vn -0.024095 0.999672 0.008678
vn -0.024095 0.999672 0.008678
vn -0.442726 -0.351271 0.824986
vn -0.442726 -0.351271 0.824986
vn -0.442726 -0.351271 0.824986
vn -0.950270 0.310321 0.026222
vn -0.950270 0.310321 0.026222
vn -0.950270 0.310322 0.026222
vn 0.024085 -0.999672 -0.008675
vn 0.024085 -0.999672 -0.008675
vn 0.024085 -0.999672 -0.008675
vn -0.483465 -0.338081 -0.807442
vn -0.483465 -0.338081 -0.807442
vn -0.483465 -0.338081 -0.807442
vn -0.923879 0.000000 0.382684
vn -0.923879 0.000000 0.382684
vn -0.923879 0.000000 0.382684
vn -0.923879 0.000000 0.382684
vn -0.382684 0.000000 0.923879
vn -0.382684 0.000000 0.923879
vn -0.382684 0.000000 0.923879
vn -0.382684 0.000000 0.923879
vn 0.382684 0.000000 0.923879
vn 0.382684 0.000000 0.923879
vn 0.382684 0.000000 0.923879
vn 0.382684 0.000000 0.923879
vn 0.923879 0.000000 0.382684
vn 0.923879 0.000000 0.382684
vn 0.923879 0.000000 0.382684
vn 0.923879 0.000000 0.382684
vn 0.923880 0.000000 -0.382683
vn 0.923880 0.000000 -0.382683
vn 0.923880 0.000000 -0.382683
vn 0.923880 0.000000 -0.382683
vn 0.382684 0.000000 -0.923880
vn 0.382684 0.000000 -0.923880
vn 0.382684 0.000000 -0.923880
vn 0.382684 0.000000 -0.923880
vn -0.382684 0.000000 -0.923880
vn -0.382684 0.000000 -0.923880
vn -0.382684 0.000000 -0.923880
vn -0.382684 0.000000 -0.923880
vn -0.923880 0.000000 -0.382683
vn -0.923880 0.000000 -0.382683
vn -0.923880 0.000000 -0.382683
vn -0.923880 0.000000 -0.382683
vn 0.000000 1.000000 0.000000
vn 0.000000 1.000000 0.000000
vn 0.000000 1.000000 0.000000
vn 0.000000 1.000000 0.000000
vn 0.000000 1.000000 0.000000
vn 0.000000 1.000000 0.000000
vn 0.000000 1.000000 0.000000
vn 0.000000 1.000000 0.000000
vn 0.000000 1.000000 -0.000000
vn 0.000000 1.000000 -0.000000
vn 0.000000 1.000000 -0.000000
vn 0.000000 1.000000 -0.000000
vn 0.000000 1.000000 -0.000000
vn 0.000000 1.000000 -0.000000
vn 0.000000 1.000000 -0.000000
vn 0.000000 1.000000 -0.000000
vn 0.923880 0.000000 -0.382683
vn 0.923880 0.000000 -0.382683
vn 0.923880 0.000000 -0.382683
vn 0.923880 0.000000 -0.382683
vn 0.382683 0.000000 -0.923880
vn 0.382683 0.000000 -0.923880
vn 0.382683 0.000000 -0.923880
vn 0.382683 0.000000 -0.923880
vn -0.382683 0.000000 -0.923880
vn -0.382683 0.000000 -0.923880
vn -0.382683 0.000000 -0.923880
vn -0.382683 0.000000 -0.923880
vn -0.923880 0.000000 -0.382683
vn -0.923880 0.000000 -0.382683
vn -0.923880 0.000000 -0.382683
vn -0.923880 0.000000 -0.382683
vn -0.923880 0.000000 0.382683
vn -0.923880 0.000000 0.382683
vn -0.923880 0.000000 0.382683
vn -0.923880 0.000000 0.382683
vn -0.382683 0.000000 0.923880
vn -0.382683 0.000000 0.923880
vn -0.382683 0.000000 0.923880
vn -0.382683 0.000000 0.923880
vn 0.382683 0.000000 0.923880
vn 0.382683 0.000000 0.923880
vn 0.382683 0.000000 0.923880
vn 0.382683 0.000000 0.923880
vn 0.923880 0.000000 0.382683
vn 0.923880 0.000000 0.382683
vn 0.923880 0.000000 0.382683
vn 0.923880 0.000000 0.382683
vn 0.000000 -1.000000 0.000001
vn 0.000000 -1.000000 -0.000000
vn 0.000000 -1.000000 -0.000000
vn 0.000000 -1.000000 0.000001
vn 0.000000 -1.000000 0.000001
vn 0.000000 -1.000000 0.000001
vn 0.000000 -1.000000 0.000000
vn 0.000000 -1.000000 0.000000
vn 0.000000 -1.000000 -0.000000
vn 0.000000 -1.000000 -0.000000
vn 0.000000 -1.000000 -0.000001
vn 0.000000 -1.000000 -0.000001
vn 0.000000 -1.000000 -0.000001
vn 0.000000 -1.000000 -0.000001
vn 0.000000 -1.000000 -0.000001
vn 0.000000 -1.000000 -0.000001
vn -0.033644 0.994056 -0.103547
vn -0.033644 0.994056 -0.103547
vn -0.033644 0.994055 -0.103547
vn -0.033644 0.994055 -0.103547
vn -0.101017 0.994885 0.000000
vn -0.101017 0.994885 0.000000
vn -0.101017 0.994885 0.000000
vn -0.101017 0.994885 0.000000
vn -0.033644 0.994055 0.103547
vn -0.033644 0.994055 0.103547
vn -0.033644 0.994055 0.103547
vn -0.033644 0.994055 0.103547
vn 0.100747 0.992216 0.073197
vn 0.100747 0.992216 0.073197
vn 0.100747 0.992216 0.073197
vn 0.100747 0.992216 0.073197
vn 0.100747 0.992216 -0.073197
vn 0.100747 0.992216 -0.073197
vn 0.100747 0.992216 -0.073197
vn 0.100747 0.992216 -0.073197
vn 0.000000 1.000000 0.000000
vn 0.000000 1.000000 0.000000
vn 0.000000 1.000000 0.000000
vn 0.000000 1.000000 -0.000000
vn 0.000000 1.000000 -0.000000
vn 0.000000 1.000000 0.000000
vn -0.188133 0.793316 -0.579013
vn -0.188133 0.793316 -0.579013
vn -0.188133 0.793316 -0.579013
vn -0.188133 0.793316 -0.579013
vn -0.579703 0.814828 0.000000
vn -0.579703 0.814828 0.000000
vn -0.579703 0.814828 0.000000
vn -0.579703 0.814828 0.000000
vn -0.188133 0.793316 0.579013
vn -0.188133 0.793316 0.579013
vn -0.188133 0.793316 0.579013
vn -0.188133 0.793316 0.579013
vn 0.534250 0.750941 0.388155
vn 0.534250 0.750941 0.388155
vn 0.534250 0.750941 0.388155
vn 0.534250 0.750941 0.388155
vn 0.534250 0.750941 -0.388155
vn 0.534250 0.750941 -0.388155
vn 0.534250 0.750941 -0.388155
vn 0.534250 0.750941 -0.388155
vn 0.263327 0.523311 0.810435
vn 0.263327 0.523311 0.810435
vn 0.263327 0.523311 0.810435
vn 0.263327 0.523311 0.810435
vn 0.833674 0.552257 0.000000
vn 0.833674 0.552257 0.000000
vn 0.833674 0.552257 0.000000
vn 0.833674 0.552257 0.000000
vn 0.263326 0.523310 -0.810436
vn 0.263326 0.523310 -0.810436
vn 0.263326 0.523310 -0.810436
vn 0.263326 0.523310 -0.810436
vn -0.713071 0.472362 -0.518077
vn -0.713071 0.472362 -0.518077
vn -0.713071 0.472362 -0.518077
vn -0.713071 0.472362 -0.518077
vn -0.713071 0.472363 0.518076
vn -0.713071 0.472363 0.518076
vn -0.713071 0.472363 0.518076
vn -0.713071 0.472363 0.518076
s off
g pCube19
usemtl StingrayPBS1SG
f 1/1/1 3/106/2 19/3/3 21/4/4
f 2/5/5 1/107/6 6/105/7 5/7/8
f 3/2/9 2/5/10 8/8/11 7/104/12
f 4/10/13 6/105/14 22/100/15 24/12/16
f 5/7/17 4/10/18 12/13/19 11/14/20
f 7/9/21 9/103/22 14/16/23 13/17/24
f 9/15/25 8/8/26 11/14/27 10/18/28
f 10/18/29 12/13/30 18/19/31 17/20/32
f 13/17/33 15/21/34 20/22/35 19/3/36
f 15/21/37 14/16/38 17/20/39 16/23/40
f 16/23/41 18/19/42 24/12/43 23/24/44
f 21/4/45 20/22/46 23/24/47 22/100/48
f 2/5/49 5/7/50 11/14/51 8/8/52
f 9/103/53 10/102/54 17/101/55 14/16/56
f 15/21/57 16/23/58 23/24/59 20/22/60
f 21/4/61 22/11/62 6/6/63 1/1/64
f 4/10/65 24/12/66 18/19/67 12/13/68
f 19/3/69 3/106/70 7/9/71 13/17/72
f 1/107/73 2/5/74 3/2/75
f 4/10/76 5/7/77 6/105/78
f 7/104/79 8/8/80 9/15/81
f 10/18/82 11/14/83 12/13/84
f 13/17/85 14/16/86 15/21/87
f 16/23/88 17/20/89 18/19/90
f 19/3/91 20/22/92 21/4/93
f 22/100/94 23/24/95 24/12/96
f 26/99/97 25/96/98 33/89/99 34/94/100
f 27/98/101 26/99/102 34/94/103 35/93/104
f 28/97/105 27/98/106 35/93/107 36/92/108
f 29/119/109 28/97/110 36/92/111 37/91/112
f 30/118/113 29/119/114 37/91/115 38/90/116
f 31/79/117 30/118/118 38/90/119 39/80/120
f 32/95/121 31/78/122 39/81/123 40/88/124
f 25/96/125 32/95/126 40/88/127 33/89/128
s 1
f 34/28/129 33/27/130 41/83/131 42/87/132
f 35/30/133 34/28/129 42/87/132 43/86/134
f 36/32/135 35/30/133 43/86/134 44/85/136
f 37/34/137 36/32/135 44/85/136 45/117/138
f 38/36/139 37/34/137 45/117/138 46/116/140
f 39/38/141 38/36/139 46/116/140 47/84/142
f 40/40/143 39/38/141 47/84/142 48/82/144
f 33/27/130 40/40/143 48/82/144 41/83/131
s off
f 42/42/145 41/120/146 49/121/147 50/115/148
f 43/43/149 42/42/150 50/115/151 51/114/152
f 44/44/153 43/43/154 51/114/155 52/113/156
f 45/45/157 44/44/158 52/113/159 53/112/160
f 46/46/161 45/45/162 53/112/163 54/111/164
f 47/47/165 46/46/166 54/111/167 55/110/168
f 48/48/169 47/47/170 55/110/171 56/108/172
f 41/41/173 48/48/174 56/108/175 49/109/176
s 2
f 50/50/177 49/49/178 25/26/179 26/25/180
f 51/51/181 50/50/177 26/25/180 27/29/182
f 52/52/183 51/51/181 27/29/182 28/31/184
f 53/53/185 52/52/183 28/31/184 29/33/186
f 54/54/187 53/53/185 29/33/186 30/35/188
f 55/55/189 54/54/187 30/35/188 31/37/190
f 56/56/191 55/55/189 31/37/190 32/39/192
f 49/49/178 56/56/191 32/39/192 25/26/179
s off
f 57/57/193 58/58/194 63/59/195 62/60/196
f 58/58/197 59/61/198 64/62/199 63/59/200
f 59/61/201 60/63/202 65/64/203 64/62/204
f 60/63/205 61/65/206 66/66/207 65/64/208
f 61/65/209 57/57/210 62/60/211 66/66/212
s 3
f 72/67/213 73/68/214 74/69/215
f 73/68/214 75/70/216 74/69/215
f 75/70/216 76/71/217 74/69/215
f 76/71/217 77/72/218 74/69/215
f 77/72/218 72/67/213 74/69/215
s off
f 62/60/219 63/59/220 68/73/221 67/74/222
f 63/59/223 64/62/224 69/75/225 68/73/226
f 64/62/227 65/64/228 70/76/229 69/75/230
f 65/64/231 66/66/232 71/77/233 70/76/234
f 66/66/235 62/60/236 67/74/237 71/77/238
f 67/74/239 68/73/240 73/68/241 72/67/242
f 68/73/243 69/75/244 75/70/245 73/68/246
f 69/75/247 70/76/248 76/71/249 75/70/250
f 70/76/251 71/77/252 77/72/253 76/71/254
f 71/77/255 67/74/256 72/67/257 77/72/258
