# This file uses centimeters as units for non-parametric coordinates.

mtllib s.mtl
g default
v -10.865765 8.390150 2.304065
v -10.865765 8.495468 2.409384
v -10.971084 8.495468 2.304065
v -10.655083 8.495468 2.409384
v -10.655083 8.390150 2.304065
v -10.971084 9.511278 2.304065
v -10.865765 9.511278 2.409384
v -10.865765 9.616596 2.304065
v -10.655083 9.616596 2.304065
v -10.655083 9.511278 2.409384
v -10.971084 9.511278 -0.437239
v -10.865765 9.616596 -0.437239
v -10.865765 9.511278 -0.542558
v -10.655083 9.511278 -0.542558
v -10.655083 9.616596 -0.437239
v -10.971084 8.495468 -0.437239
v -10.865765 8.495468 -0.542558
v -10.865765 8.390150 -0.437239
v -10.655083 8.390150 -0.437239
v -10.655083 8.495468 -0.542558
vt 0.720866 0.037669
vt 0.710246 0.089508
vt 0.086076 0.713795
vt 0.058605 0.699564
vt 0.741559 0.074739
vt 0.660987 0.046587
vt 0.763736 0.048624
vt 0.939321 0.274188
vt 0.919161 0.299645
vt 0.946614 0.305488
vt 0.308610 0.940907
vt 0.294192 0.922630
vt 0.963717 0.249408
vt 0.981316 0.272484
vt 0.270136 0.939678
vt 0.071776 0.739911
vt 0.333808 0.966805
vt 0.246260 0.963556
vt 0.047044 0.763528
vt 0.023255 0.734361
vt 0.023733 0.683116
vt 0.270920 0.988484
vt 0.971680 0.331807
vt 0.739213 0.019186
vn -0.707105 -0.707108 0.000000
vn -0.707105 -0.707108 0.000000
vn -0.707105 -0.707108 0.000000
vn -0.707105 -0.707108 0.000000
vn 0.000000 -0.707110 0.707103
vn 0.000000 -0.707110 0.707103
vn 0.000000 -0.707110 0.707103
vn 0.000000 -0.707110 0.707103
vn -0.707109 0.000000 0.707105
vn -0.707109 0.000000 0.707105
vn -0.707109 0.000000 0.707105
vn -0.707109 0.000000 0.707105
vn -0.707105 0.707108 0.000000
vn -0.707105 0.707108 0.000000
vn -0.707105 0.707108 0.000000
vn -0.707105 0.707108 0.000000
vn 0.000000 0.707110 0.707103
vn 0.000000 0.707110 0.707103
vn 0.000000 0.707110 0.707103
vn 0.000000 0.707110 0.707103
vn -0.707109 0.000000 -0.707104
vn -0.707109 0.000000 -0.707104
vn -0.707109 0.000000 -0.707104
vn -0.707109 0.000000 -0.707104
vn 0.000000 0.707111 -0.707103
vn 0.000000 0.707111 -0.707103
vn 0.000000 0.707111 -0.707103
vn 0.000000 0.707111 -0.707103
vn 0.000000 -0.707111 -0.707103
vn 0.000000 -0.707111 -0.707103
vn 0.000000 -0.707111 -0.707103
vn 0.000000 -0.707111 -0.707103
vn 0.000000 0.000000 1.000000
vn 0.000000 0.000000 1.000000
vn 0.000000 0.000000 1.000000
vn 0.000000 0.000000 1.000000
vn 0.000000 1.000000 0.000000
vn 0.000000 1.000000 0.000000
vn 0.000000 1.000000 0.000000
vn 0.000000 1.000000 0.000000
vn 0.000000 0.000000 -1.000000
vn 0.000000 0.000000 -1.000000
vn 0.000000 0.000000 -1.000000
vn 0.000000 0.000000 -1.000000
vn 0.000000 -1.000000 0.000000
vn 0.000000 -1.000000 0.000000
vn 0.000000 -1.000000 0.000000
vn 0.000000 -1.000000 0.000000
vn -1.000000 0.000000 0.000000
vn -1.000000 0.000000 0.000000
vn -1.000000 0.000000 0.000000
vn -1.000000 0.000000 0.000000
vn -0.577352 -0.577352 0.577347
vn -0.577351 -0.577352 0.577347
vn -0.577352 -0.577352 0.577347
vn -0.577352 0.577352 0.577347
vn -0.577351 0.577352 0.577347
vn -0.577352 0.577352 0.577347
vn -0.577351 0.577353 -0.577346
vn -0.577351 0.577353 -0.577346
vn -0.577351 0.577353 -0.577346
vn -0.577351 -0.577353 -0.577346
vn -0.577351 -0.577353 -0.577346
vn -0.577351 -0.577353 -0.577346
s off
g pCube23
usemtl initialShadingGroup
f 1/1/1 3/2/2 16/3/3 18/4/4
f 2/5/5 1/1/6 5/24/7 4/7/8
f 3/2/9 2/5/10 7/8/11 6/9/12
f 6/9/13 8/10/14 12/11/15 11/12/16
f 8/10/17 7/8/18 10/13/19 9/14/20
f 11/12/21 13/15/22 17/16/23 16/3/24
f 13/15/25 12/11/26 15/22/27 14/18/28
f 18/4/29 17/16/30 20/19/31 19/20/32
f 2/5/33 4/7/34 10/13/35 7/8/36
f 8/10/37 9/23/38 15/17/39 12/11/40
f 13/15/41 14/18/42 20/19/43 17/16/44
f 18/4/45 19/21/46 5/6/47 1/1/48
f 16/3/49 3/2/50 6/9/51 11/12/52
f 1/1/53 2/5/54 3/2/55
f 6/9/56 7/8/57 8/10/58
f 11/12/59 12/11/60 13/15/61
f 16/3/62 17/16/63 18/4/64
